<?xml version="1.0" standalone="no"?>
<!DOCTYPE svg PUBLIC "-//W3C//DTD SVG 1.1//EN" "http://www.w3.org/Graphics/SVG/1.1/DTD/svg11.dtd" >
<svg xmlns="http://www.w3.org/2000/svg">
<metadata></metadata>
<defs>
<font id="edmondsans_boldregular" horiz-adv-x="1636" >
<font-face units-per-em="2048" ascent="1536" descent="-512" />
<missing-glyph horiz-adv-x="614" />
<glyph unicode="&#xfb01;" horiz-adv-x="1159" d="M18 745v254h144v181q0 175 106 278t262 103q105 0 183 -35l-95 -244q-29 16 -63 16q-49 0 -75.5 -36.5t-26.5 -102.5v-160h211v-254h-211v-745h-291v745h-144zM731 1309q0 76 56 132t133 56q76 0 132 -55.5t56 -132.5t-56 -133t-132 -56t-132.5 56t-56.5 133zM770 0v999 h293v-999h-293z" />
<glyph unicode="&#xfb02;" horiz-adv-x="1290" d="M41 745v254h143v181q0 175 106.5 278t262.5 103q104 0 182 -35l-94 -244q-29 16 -63 16q-49 0 -76 -36.5t-27 -102.5v-160h211v-254h-211v-745h-291v745h-143zM868 0v1536h291v-1536h-291z" />
<glyph horiz-adv-x="2048" />
<glyph horiz-adv-x="2048" />
<glyph unicode="&#xd;" horiz-adv-x="2048" />
<glyph unicode=" "  horiz-adv-x="614" />
<glyph unicode="&#x09;" horiz-adv-x="614" />
<glyph unicode="&#xa0;" horiz-adv-x="614" />
<glyph unicode="!" horiz-adv-x="546" d="M86 170q0 76 56 132t132 56q77 0 133 -56t56 -132t-56 -132t-133 -56q-76 0 -132 56t-56 132zM129 1434h283l-9 -932h-264z" />
<glyph unicode="&#x22;" horiz-adv-x="534" d="M23 1434h223l-13 -351h-198zM289 1434h223l-12 -351h-199z" />
<glyph unicode="#" horiz-adv-x="1218" d="M33 406v221h246v225h-246v221h246v361h221v-361h219v361h221v-361h244v-221h-244v-225h244v-221h-244v-406h-221v406h-219v-406h-221v406h-246zM500 627h219v225h-219v-225z" />
<glyph unicode="$" horiz-adv-x="1026" d="M33 256l235 168q42 -84 107.5 -128t144.5 -44q70 0 115 42.5t45 108.5q0 43 -30.5 84t-79.5 77t-107.5 74.5t-117.5 83.5t-108 95.5t-79.5 119.5t-30.5 148q0 130 79.5 226t201.5 129v157h229v-159q147 -43 233 -174l-196 -174q-66 98 -148 98q-44 0 -74 -30t-30 -75 q0 -36 30.5 -72.5t79 -70t107 -71t117.5 -83.5t107.5 -98.5t79 -125t30.5 -154.5q0 -157 -95 -270t-251 -144v-150h-230v148q-254 45 -364 264z" />
<glyph unicode="%" horiz-adv-x="1560" d="M45 1122q0 135 93 228.5t227 93.5t226.5 -93.5t92.5 -228.5q0 -134 -93 -226.5t-226 -92.5q-134 0 -227 93t-93 226zM141 0l981 1434h281l-981 -1434h-281zM244 1122q0 -50 35 -84t86 -34q50 0 85 34.5t35 83.5q0 51 -35 86t-85 35q-51 0 -86 -35t-35 -86zM864 309 q0 133 93 226.5t227 93.5q133 0 226 -93t93 -227q0 -133 -92.5 -226t-226.5 -93t-227 93t-93 226zM1063 309q0 -51 35 -86t86 -35q50 0 85.5 35t35.5 86q0 49 -35.5 85t-85.5 36q-51 0 -86 -35.5t-35 -85.5z" />
<glyph unicode="&#x26;" horiz-adv-x="1263" d="M16 414q0 59 17.5 113t45 95t69 79.5t82 66.5t92.5 57l-5 9q-104 131 -104 292q0 136 94 232t264 96q80 0 145 -27t105.5 -71.5t62 -99.5t21.5 -115q0 -106 -55.5 -183.5t-155.5 -146.5l166 -203q27 104 41 226h266q-25 -234 -135 -439l197 -239l-228 -176l-147 184 q-184 -184 -371 -184q-125 0 -230.5 51t-171 151.5t-65.5 231.5zM299 422q0 -81 56.5 -130.5t133.5 -49.5q121 0 222 98l-256 319q-75 -54 -115.5 -109.5t-40.5 -127.5zM489 1135q0 -69 74 -164q76 70 76 162q0 36 -18 58.5t-54 22.5t-57 -23t-21 -56z" />
<glyph unicode="'" horiz-adv-x="305" d="M41 1434h223l-12 -351h-199z" />
<glyph unicode="(" horiz-adv-x="600" d="M44.5 732.5q-0.5 220.5 74 434t217.5 365.5l225 -121q-144 -177 -194 -434.5t2 -514.5t192 -439l-223 -111q-143 162 -218 381t-75.5 439.5z" />
<glyph unicode=")" horiz-adv-x="600" d="M39 23q140 182 192 439t2 514.5t-194 434.5l225 121q143 -152 217.5 -365.5t74 -434t-75.5 -439.5t-218 -381z" />
<glyph unicode="*" horiz-adv-x="720" d="M37 1092l145 75l-143 78q15 26 45 81.5t45 82.5l141 -94l-6 170h191q-2 -28 -4.5 -84.5t-4.5 -85.5q25 15 72.5 46.5t71.5 47.5q15 -27 45 -82.5t45 -81.5l-143 -78q12 -6 64 -32.5t79 -42.5l-88 -164l-148 92l11 -170h-191l8 170l-145 -92q-13 23 -43 79t-47 85z" />
<glyph unicode="+" horiz-adv-x="907" d="M82 668v221h260v262h221v-262h262v-221h-262v-260h-221v260h-260z" />
<glyph unicode="," horiz-adv-x="571" d="M86 174q0 72 54 128t136 56q100 0 154.5 -68.5t54.5 -176.5q0 -125 -78.5 -239.5t-201.5 -154.5q-33 58 -78 142q27 14 48.5 29.5t37 32.5t24 27t19.5 27l10 17q-81 8 -130.5 56.5t-49.5 123.5z" />
<glyph unicode="-" horiz-adv-x="661" d="M82 463v221h498v-221h-498z" />
<glyph unicode="." horiz-adv-x="548" d="M86 170q0 76 56 132t132 56q77 0 133 -56t56 -132t-56 -132t-133 -56q-76 0 -132 56t-56 132z" />
<glyph unicode="/" horiz-adv-x="802" d="M-39 -205l574 1843h303l-574 -1843h-303z" />
<glyph unicode="0" horiz-adv-x="1386" d="M70 719q0 215 71 379.5t213.5 260t339.5 95.5q196 0 338.5 -95t213.5 -259.5t71 -380.5q0 -157 -41.5 -291.5t-119 -233.5t-196.5 -155.5t-266 -56.5q-148 0 -267 56.5t-196.5 155.5t-119 233.5t-41.5 291.5zM358 719q0 -206 88 -335.5t248 -129.5t247 130t87 335 t-86.5 332t-247.5 127q-162 0 -249 -126.5t-87 -332.5z" />
<glyph unicode="1" horiz-adv-x="886" d="M80 1282l315 152h223v-1168h187v-266h-662v266h185v850l-138 -72z" />
<glyph unicode="2" horiz-adv-x="1171" d="M111 0v233q13 9 36 24.5t89.5 65.5t127 101t134 125t126.5 144t89.5 150.5t36.5 151.5q0 85 -45.5 137t-112.5 52q-75 0 -118 -48.5t-45.5 -120.5t22.5 -155l-273 -82q-5 10 -13 28t-21 73t-13 110q0 206 134.5 335.5t334.5 129.5q198 0 323.5 -114.5t125.5 -321.5 q0 -359 -457 -744q45 5 82 5h387v-279h-950z" />
<glyph unicode="3" horiz-adv-x="1144" d="M70 281l243 114q22 -62 83 -109.5t153 -47.5q96 0 153.5 60t57.5 153q0 91 -63 145.5t-171 54.5h-43v226q83 0 139 45t56 131q0 59 -35.5 98t-87.5 39t-86.5 -38.5t-34.5 -104.5h-284q0 100 35.5 180t94.5 129t131.5 74.5t151.5 25.5q104 0 193 -40t148 -125t59 -201 q0 -199 -148 -297q64 -20 112 -59.5t75 -88t40 -99t13 -102.5q0 -206 -137 -335t-355 -129q-91 0 -169.5 19.5t-133 51t-96 72t-63.5 80t-31 78.5z" />
<glyph unicode="4" horiz-adv-x="1142" d="M41 297v221l606 916h240v-885h174v-252h-174v-297h-293v297h-553zM342 549h252v375z" />
<glyph unicode="5" horiz-adv-x="1251" d="M82 332l252 110q29 -75 102 -134.5t174 -59.5q115 0 178.5 74t63.5 176q0 101 -63 175.5t-175 74.5q-129 0 -192 -95l-221 125v656h796v-267h-534v-219q81 33 180 33q126 0 225 -41t159 -110.5t91 -155t31 -180.5q0 -101 -34 -192t-98 -163.5t-166 -115.5t-228 -43 q-118 0 -217 31.5t-163 83.5t-104.5 112t-56.5 125z" />
<glyph unicode="6" horiz-adv-x="1193" d="M90 575q0 119 23.5 230.5t75 216.5t128 190.5t188 152t249.5 101.5l86 -237q-91 -22 -168 -65.5t-122.5 -88.5t-78 -87.5t-45.5 -69.5l-12 -27l4 -4q105 96 266 96q134 0 238 -65t158.5 -173t54.5 -239q0 -144 -63 -262.5t-184 -190t-276 -71.5q-163 0 -282.5 78 t-179.5 211.5t-60 303.5zM367 498q0 -108 64 -185t177 -77q109 0 173.5 79t64.5 187q0 107 -63 182.5t-173 75.5q-113 0 -178 -76.5t-65 -185.5z" />
<glyph unicode="7" horiz-adv-x="1003" d="M70 1155v279h868v-228q-7 -11 -19.5 -31t-48 -88t-67 -140.5t-70 -184t-65 -224.5t-42.5 -255.5t-12 -282.5h-303q0 186 32.5 370.5t86 334.5t102.5 256t101 194h-563z" />
<glyph unicode="8" horiz-adv-x="1234" d="M111 414q0 50 12.5 102t40 105.5t78 101t118.5 78.5q-151 94 -151 282q0 71 25.5 136t74 118t128.5 85t181 32q99 0 179 -31.5t129.5 -84t75.5 -118t26 -135.5q0 -190 -147 -284q68 -31 117.5 -78.5t75.5 -101t38 -104.5t12 -101q0 -83 -31.5 -160t-91.5 -139 t-159.5 -99.5t-223.5 -37.5q-125 0 -224.5 37t-159.5 99t-91.5 138t-31.5 160zM401 442q0 -93 57.5 -153t159.5 -60q100 0 156.5 60t56.5 153q0 92 -57 158t-156 66q-101 0 -159 -66t-58 -158zM475 1067q0 -73 37 -120.5t106 -47.5t104.5 47.5t35.5 120.5q0 67 -38 112.5 t-102 45.5q-67 0 -105 -45.5t-38 -112.5z" />
<glyph unicode="9" horiz-adv-x="1245" d="M90 942q0 144 63 262.5t183.5 190t275.5 71.5q163 0 283 -78.5t180 -212t60 -303.5q0 -150 -38.5 -287t-116 -257.5t-208 -211t-301.5 -134.5l-86 237q91 22 168 65.5t122.5 88.5t78 87.5t44.5 69.5l13 27l-4 4q-105 -96 -266 -96q-134 0 -238 65t-158.5 173t-54.5 239z M379 946q0 -108 62.5 -183t172.5 -75q113 0 178.5 76.5t65.5 185.5q0 108 -64.5 185t-177.5 77q-109 0 -173 -79t-64 -187z" />
<glyph unicode=":" horiz-adv-x="546" d="M86 170q0 76 56 132t132 56q77 0 133 -56t56 -132t-56 -132t-133 -56q-76 0 -132 56t-56 132zM86 768q0 76 56 132t132 56q77 0 133 -56t56 -132t-56 -132t-133 -56q-76 0 -132 56t-56 132z" />
<glyph unicode=";" horiz-adv-x="507" d="M86 768q0 76 56 132t132 56q77 0 133 -56t56 -132t-56 -132t-133 -56q-76 0 -132 56t-56 132zM90 176q0 66 50 117t124 51q92 0 141.5 -62.5t49.5 -160.5q0 -113 -71.5 -217.5t-184.5 -141.5q-37 64 -72 129q24 13 44 27t34.5 30t22 25t16.5 24l10 15q-73 8 -118.5 52 t-45.5 112z" />
<glyph unicode="&#x3c;" horiz-adv-x="684" d="M41 776l438 436l156 -153l-285 -283l285 -282l-156 -156z" />
<glyph unicode="=" horiz-adv-x="880" d="M123 494v221h635v-221h-635zM123 842v221h635v-221h-635z" />
<glyph unicode="&#x3e;" horiz-adv-x="679" d="M47 494l285 282l-285 283l156 153l438 -436l-438 -438z" />
<glyph unicode="?" horiz-adv-x="940" d="M29 1032q0 111 49 200t127 136t172.5 70.5t189 3.5t172.5 -66t127 -137.5t49 -210.5q0 -66 -19 -125t-49 -102t-66 -81t-73 -70t-67 -61.5t-49.5 -62t-20.5 -65.5q0 -10 7 -35v-4h-275q-14 70 -5 120t36 95.5t62 79.5t74 71.5t71.5 71t53.5 78t21 92.5q0 67 -38 110.5 t-107 43.5q-88 0 -127.5 -73.5t-5.5 -180.5l-279 -82q-30 61 -30 184zM256 170q0 76 56 132t132 56q77 0 133 -56t56 -132t-56 -132t-133 -56q-76 0 -132 56t-56 132z" />
<glyph unicode="@" horiz-adv-x="1853" d="M49 635q0 181 68 345t184.5 284t282 191t352.5 71q190 0 353 -70.5t275 -191.5t175 -284t63 -345q0 -101 -24 -185.5t-64 -142t-92.5 -97.5t-110 -58.5t-116.5 -18.5q-91 0 -164 43.5t-103 122.5q-101 -143 -274 -143q-77 0 -143 26.5t-112.5 71.5t-79.5 105t-48.5 127 t-15.5 137q0 89 25 170.5t73 147.5t125.5 105t173.5 39q155 0 248 -100v84h272v-635q0 -52 22.5 -80t57.5 -28q62 0 114 81.5t52 227.5q0 193 -85.5 356t-243 261t-353.5 98q-199 0 -356 -97t-241.5 -259.5t-84.5 -358.5q0 -153 53 -286.5t144.5 -226.5t217.5 -146.5 t267 -53.5q250 0 428 148l106 -148q-241 -178 -534 -178q-187 0 -351.5 67.5t-282 185.5t-185.5 283.5t-68 354.5zM727 621q0 -89 53 -153.5t144 -64.5q82 0 131 65t49 155t-48 153.5t-132 63.5q-91 0 -144 -64t-53 -155z" />
<glyph unicode="A" horiz-adv-x="1292" d="M20 0l463 1434h326l463 -1434h-311l-99 340h-430l-100 -340h-312zM500 569h295l-43 154q-8 28 -29.5 105.5t-32.5 117t-24 93t-19 85.5q-19 -120 -102 -401z" />
<glyph unicode="B" horiz-adv-x="1226" d="M164 0v1434h446q178 0 275.5 -93.5t97.5 -240.5q0 -181 -156 -269q139 -47 218 -148t79 -241q0 -199 -134.5 -320.5t-405.5 -121.5h-420zM455 240h166q47 0 85.5 14t63 38t40.5 56q17 32 20 66q1 15 1 29q0 20 -2 39q-4 34 -21.5 65.5t-42 55.5t-61.5 38t-81 14h-168 v-415zM455 920h114q41 0 73 22.5t48 56.5q17 33 19 73v11q0 34 -11 63q-13 34 -46.5 56.5t-82.5 22.5h-114v-305z" />
<glyph unicode="C" horiz-adv-x="1456" d="M82 717q0 149 57.5 284.5t154.5 234.5t232.5 157.5t284.5 58.5q331 0 549 -254l-217 -188q-154 161 -334 161q-183 0 -307.5 -131t-124.5 -323q0 -195 124.5 -326t307.5 -131q184 0 340 170l225 -180q-226 -270 -563 -270q-201 0 -369 98.5t-264 268t-96 370.5z" />
<glyph unicode="D" horiz-adv-x="1435" d="M164 0v1434h450q174 0 308.5 -40.5t232 -124t148.5 -218t51 -316.5q0 -173 -50.5 -312.5t-141 -231.5t-215.5 -141.5t-275 -49.5h-508zM459 268h205q192 0 293.5 123.5t101.5 345.5q0 231 -109.5 328.5t-335.5 97.5h-155v-895z" />
<glyph unicode="E" horiz-adv-x="1159" d="M164 0v1434h872v-260h-581v-287h407v-258h-407v-369h581v-260h-872z" />
<glyph unicode="F" horiz-adv-x="937" d="M123 0v1434h754v-271h-463v-276h315v-271h-315v-616h-291z" />
<glyph unicode="G" horiz-adv-x="1538" d="M102 717q0 149 57.5 284.5t154.5 234.5t232.5 157.5t284.5 58.5q331 0 549 -254l-217 -188q-62 73 -149.5 117t-184.5 44q-183 0 -307.5 -131t-124.5 -323q0 -193 126.5 -325t305.5 -132q83 0 161.5 26t131.5 79v178h-286v248h559v-541q-224 -268 -564 -268 q-201 0 -369 98t-264 267t-96 370z" />
<glyph unicode="H" horiz-adv-x="1351" d="M164 0v1434h295v-496h434v496h295v-1434h-295v668h-434v-668h-295z" />
<glyph unicode="I" horiz-adv-x="894" d="M123 0v242h178v948h-178v244h649v-244h-178v-948h178v-242h-649z" />
<glyph unicode="J" horiz-adv-x="931" d="M20 133l160 199q82 -76 164 -76q64 0 104.5 47.5t40.5 124.5q0 164 -1 502.5t-1 503.5h293v-994q0 -96 -23.5 -176t-73 -144.5t-133.5 -101t-196 -36.5q-104 0 -182.5 35t-151.5 116z" />
<glyph unicode="K" horiz-adv-x="1239" d="M164 0v1434h291v-461q0 -19 -1 -41t-2 -37t-1 -16q9 28 45 79l327 476h330l-379 -547l455 -887h-344l-275 575l-32 76q-1 0 -7.5 -10.5t-17.5 -29t-21 -31.5l-77 -105v-475h-291z" />
<glyph unicode="L" horiz-adv-x="960" d="M123 0v1434h291v-1168h506v-266h-797z" />
<glyph unicode="M" horiz-adv-x="1929" d="M102 0l199 1434h361l272 -863q17 -66 29 -139q0 1 3 17.5t6 34t8 42t11 43.5l277 865h360l199 -1434h-314l-90 809q-16 129 -16 235q-28 -140 -51 -227l-264 -817h-254l-267 815q-36 126 -53 229q0 -102 -12 -235l-90 -809h-314z" />
<glyph unicode="N" horiz-adv-x="1339" d="M164 0v1434h268l416 -596q11 -17 23 -38t21.5 -38t10.5 -19q0 1 -1 19.5t-2 44.5t-1 47v580h277v-1434h-277v313l-405 557q-15 20 -31.5 46.5t-25.5 43.5l-9 17q6 -70 6 -125v-852h-270z" />
<glyph unicode="O" d="M82 717q0 198 98.5 367.5t268.5 268.5t370 99q148 0 284 -58.5t235 -157.5t157.5 -235t58.5 -284q0 -200 -99 -370t-268.5 -268.5t-367.5 -98.5q-150 0 -286.5 58t-235.5 157t-157 235.5t-58 286.5zM385 717q0 -203 123 -333t311 -130q187 0 309.5 130.5t122.5 332.5 t-122.5 331.5t-309.5 129.5q-188 0 -311 -130t-123 -331z" />
<glyph unicode="P" horiz-adv-x="1251" d="M164 0v1434h522q212 0 337.5 -127t125.5 -344q0 -216 -125 -342.5t-338 -126.5h-231v-494h-291zM455 760h186q107 0 167 53t60 150q0 98 -59.5 151t-167.5 53h-186v-407z" />
<glyph unicode="Q" d="M82 717q0 198 98.5 367.5t268.5 268.5t370 99q148 0 284 -58.5t235 -157.5t157.5 -235t58.5 -284q0 -267 -170 -471l121 -121l-164 -162l-131 131q-182 -114 -391 -114q-150 0 -286.5 58t-235.5 157t-157 235.5t-58 286.5zM385 717q0 -203 123 -333t311 -130 q105 0 189 41l-123 125l164 162l131 -131q71 117 71 266q0 202 -122.5 331.5t-309.5 129.5q-188 0 -311 -130t-123 -331z" />
<glyph unicode="R" horiz-adv-x="1257" d="M164 0v1434h522q212 0 337.5 -127t125.5 -344q0 -136 -52 -238.5t-147 -161.5l246 -563h-319l-201 494h-221v-494h-291zM455 760h186q107 0 167 53t60 150q0 98 -59.5 151t-167.5 53h-186v-407z" />
<glyph unicode="S" horiz-adv-x="1021" d="M41 256l235 168q42 -84 107.5 -128t144.5 -44q70 0 115 42.5t45 108.5q0 43 -30.5 84t-79.5 77t-107.5 74.5t-117.5 83.5t-108 95.5t-79.5 119.5t-30.5 148q0 105 54.5 191t142.5 132t190 46q234 0 357 -190l-197 -174q-66 98 -147 98q-45 0 -75 -30t-30 -75 q0 -36 30.5 -72.5t79 -70t107 -71t117.5 -83.5t107.5 -98.5t79 -125t30.5 -154.5q0 -185 -128 -305.5t-327 -120.5q-159 0 -287.5 68.5t-197.5 205.5z" />
<glyph unicode="T" horiz-adv-x="925" d="M41 1163v271h844v-271h-275v-1163h-295v1163h-274z" />
<glyph unicode="U" horiz-adv-x="1296" d="M152 510v924h294v-942q0 -112 56.5 -177t144.5 -65q90 0 146.5 65t56.5 177v942h295v-924q0 -109 -27 -198t-73.5 -150t-110 -102.5t-135.5 -60.5t-152 -19q-79 0 -150.5 19t-135 60.5t-109.5 102.5t-73 150t-27 198z" />
<glyph unicode="V" horiz-adv-x="1292" d="M20 1434h312l213 -723q88 -313 102 -402q14 90 105 402l209 723h311l-463 -1434h-326z" />
<glyph unicode="W" horiz-adv-x="2015" d="M20 1434h287l373 -971q30 -81 45 -166q18 99 43 164l96 246l-280 727h270l113 -299q37 -111 43 -160q9 71 43 160l112 299h271l-281 -727l96 -246q25 -65 43 -164q17 95 45 166l373 971h287l-551 -1434h-272l-119 307q-31 79 -45 166h-4q-14 -87 -45 -166l-119 -307h-273 z" />
<glyph unicode="X" horiz-adv-x="1282" d="M82 0l367 772l-330 662h325l140 -322q35 -77 45 -117q0 14 47 117l141 322h324l-330 -662l389 -772h-319l-205 442q-35 68 -47 115q-9 -36 -45 -115l-183 -442h-319z" />
<glyph unicode="Y" horiz-adv-x="1247" d="M61 1434h326l178 -433q12 -25 22.5 -53t17.5 -49t7 -22q28 84 47 124l199 433h328l-428 -832v-602h-291v604z" />
<glyph unicode="Z" horiz-adv-x="1220" d="M111 0v217l567 858l67 92q-57 -4 -112 -4h-492v271h969v-220l-575 -872l-58 -78q45 6 96 6h537v-270h-999z" />
<glyph unicode="[" horiz-adv-x="522" d="M82 -205v1843h430v-270h-135v-1302h135v-271h-430z" />
<glyph unicode="\" horiz-adv-x="800" d="M-39 1638h303l574 -1843h-303z" />
<glyph unicode="]" horiz-adv-x="522" d="M10 37h140v1358h-140v243h430v-1843h-430v242z" />
<glyph unicode="^" horiz-adv-x="954" d="M16 1026l357 358h159l359 -358l-154 -154l-284 283q-8 -9 -28 -28t-28 -27l-227 -228z" />
<glyph unicode="_" horiz-adv-x="1038" d="M-18 -39h1075v-203h-1075v203z" />
<glyph unicode="`" horiz-adv-x="382" d="M-78 1296l148 158l317 -297l-145 -158z" />
<glyph unicode="a" horiz-adv-x="1185" d="M102 272q0 64 26 121.5t75.5 104.5t130.5 74.5t182 27.5q106 0 242 -25v33q0 74 -48 119t-130 45q-121 0 -183 -100l-200 149q5 8 14 22t44 49.5t77 62.5t112.5 49t149.5 22q207 0 327.5 -111.5t120.5 -293.5v-302q0 -27 17 -43t45 -16h41v-260h-101q-177 0 -251 170 q-48 -80 -140.5 -135t-216.5 -55q-157 0 -245.5 85.5t-88.5 206.5zM393 297q0 -42 30.5 -67t86.5 -25q88 0 153.5 53.5t94.5 138.5q-111 21 -158 21q-92 0 -149.5 -31t-57.5 -90z" />
<glyph unicode="b" horiz-adv-x="1212" d="M131 0v1536h287v-637q117 123 291 123q100 0 183.5 -43.5t137.5 -116t83.5 -165t29.5 -193.5q0 -103 -28.5 -196t-81.5 -167t-136.5 -117.5t-185.5 -43.5q-87 0 -165.5 39.5t-137.5 111.5v-131h-277zM414 502q0 -107 63 -188t158 -81q106 0 164.5 76t58.5 191 q0 116 -57.5 191t-165.5 75q-99 0 -160 -74t-61 -190z" />
<glyph unicode="c" horiz-adv-x="1075" d="M90 502q0 220 145 370t367 150q224 0 379 -176l-199 -184q-45 48 -83.5 71t-94.5 23q-99 0 -163 -71.5t-64 -182.5q0 -114 63 -182t164 -68q112 0 187 106l215 -163q-78 -107 -175.5 -160t-226.5 -53q-223 0 -368.5 149.5t-145.5 370.5z" />
<glyph unicode="d" horiz-adv-x="1214" d="M72 504q0 101 29.5 193.5t83.5 165t137.5 116t183.5 43.5q174 0 291 -123v637h286v-1536h-276v131q-129 -151 -303 -151q-102 0 -185.5 43.5t-136.5 117.5t-81.5 167t-28.5 196zM356 500q0 -114 59 -190.5t165 -76.5q95 0 158 81t63 188q0 116 -61 190t-160 74 q-108 0 -166 -75t-58 -191z" />
<glyph unicode="e" horiz-adv-x="1110" d="M70 502q0 143 60 260.5t175 188.5t264 71q123 0 215.5 -42t147.5 -118t81.5 -173t26.5 -216v-35h-682q14 -117 78.5 -172t157.5 -55q151 0 235 123l191 -137q-56 -76 -112 -121t-137.5 -70.5t-192.5 -25.5q-221 0 -364.5 146.5t-143.5 375.5zM367 614h395q-13 82 -69 128 t-126 46q-72 0 -125.5 -44.5t-74.5 -129.5z" />
<glyph unicode="f" horiz-adv-x="755" d="M41 745v254h143v181q0 175 106.5 278t262.5 103q104 0 182 -35l-94 -244q-29 16 -63 16q-49 0 -76 -36.5t-27 -102.5v-160h211v-254h-211v-745h-291v745h-143z" />
<glyph unicode="g" horiz-adv-x="1120" d="M40 -332q-2 14 -2 28q0 49 16 100q19 64 63 122q-37 57 -39 130q-1 4 -1 9q0 68 33 135q34 71 101 123q-105 111 -105 287q0 184 133 301t326 117q107 0 191 -37l127 145l168 -157l-119 -119q90 -111 90 -250q0 -184 -132 -300t-325 -116q-81 0 -159 19q-45 -38 -60 -75 q-6 -15 -6 -27q0 -21 16 -37q24 -25 88 -25q42 0 130.5 19.5t162.5 19.5q190 0 294 -118q77 -88 77 -203q0 -15 -1 -30q-12 -143 -127 -245q-152 -133 -415 -133q-125 0 -224.5 26t-161 69.5t-98 101t-41.5 120.5zM307 -199q-18 -35 -18 -65q0 -44 37 -80q65 -62 239 -62 q186 0 259 79q32 35 32 71q0 17 -7 34q-22 52 -91 64q-15 2 -31 2q-51 0 -170.5 -23.5t-196.5 -23.5q-21 0 -53 4zM377 602q0 -87 51.5 -133.5t136.5 -46.5q86 0 136.5 47t50.5 133q0 88 -50.5 137t-136.5 49q-87 0 -137.5 -49.5t-50.5 -136.5z" />
<glyph unicode="h" horiz-adv-x="1208" d="M131 0v1536h287v-604q0 -30 -6 -70q114 162 303 162q159 0 260.5 -116.5t101.5 -313.5v-594h-289v578q0 99 -53.5 154.5t-130.5 55.5q-71 0 -124 -55.5t-62 -157.5v-575h-287z" />
<glyph unicode="i" horiz-adv-x="581" d="M102 1309q0 76 56 132t133 56t132.5 -55.5t55.5 -132.5t-56 -133t-132 -56q-77 0 -133 56t-56 133zM141 0v999h293v-999h-293z" />
<glyph unicode="j" horiz-adv-x="624" d="M-246 -444l189 180q31 -94 120 -94q55 0 87 42t32 113l-2 1202h293v-1216q0 -182 -107 -299t-290 -117q-105 0 -191.5 48.5t-130.5 140.5zM137 1290q0 76 56.5 132.5t132.5 56.5t132 -56t56 -133q0 -76 -56 -132t-132 -56q-77 0 -133 56t-56 132z" />
<glyph unicode="k" horiz-adv-x="1087" d="M131 0v1536h291v-874l278 339h320l-342 -391l422 -610h-312l-280 420l-86 -98v-322h-291z" />
<glyph unicode="l" horiz-adv-x="552" d="M131 0v1536h291v-1536h-291z" />
<glyph unicode="m" horiz-adv-x="1742" d="M131 0v999h287v-51q0 -20 -8 -82q45 74 116 116t158 42q201 0 281 -164q57 75 138.5 119.5t178.5 44.5q154 0 242 -100t88 -279v-645h-287v625q0 77 -46.5 120t-109.5 43q-64 0 -109.5 -44.5t-45.5 -127.5v-616h-287v631q0 72 -43 111.5t-104 39.5q-63 0 -111 -41.5 t-51 -113.5v-627h-287z" />
<glyph unicode="n" horiz-adv-x="1208" d="M131 0v999h287v-67q0 -26 -6 -70q114 162 303 162q159 0 260.5 -116.5t101.5 -313.5v-594h-289v578q0 99 -53.5 154.5t-130.5 55.5q-71 0 -127 -54t-59 -148v-586h-287z" />
<glyph unicode="o" horiz-adv-x="1183" d="M70 502q0 146 69 265.5t188.5 187t264.5 67.5t264.5 -67.5t188.5 -187t69 -265.5t-69 -265.5t-188.5 -187t-264.5 -67.5t-264.5 67.5t-188.5 187t-69 265.5zM348 502q0 -116 68.5 -191t175.5 -75q108 0 175 75t67 191q0 115 -67 189.5t-175 74.5q-109 0 -176.5 -74.5 t-67.5 -189.5z" />
<glyph unicode="p" horiz-adv-x="1212" d="M131 -512v1511h287v-100q117 123 291 123q100 0 183.5 -43.5t137.5 -116t83.5 -165t29.5 -193.5q0 -103 -28.5 -196t-81.5 -167t-136.5 -117.5t-185.5 -43.5q-87 0 -165.5 39.5t-137.5 111.5v-643h-277zM414 502q0 -107 63 -188t158 -81q106 0 164.5 76t58.5 191 q0 116 -57.5 191t-165.5 75q-99 0 -160 -74t-61 -190z" />
<glyph unicode="q" horiz-adv-x="1212" d="M90 504q0 101 29.5 193.5t83.5 165t137.5 116t183.5 43.5q174 0 291 -123v100h287v-1511h-277v643q-129 -151 -303 -151q-102 0 -185.5 43.5t-136.5 117.5t-81.5 167t-28.5 196zM375 500q0 -115 58.5 -191t164.5 -76q95 0 158 81t63 188q0 116 -61 190t-160 74 q-108 0 -165.5 -75t-57.5 -191z" />
<glyph unicode="r" horiz-adv-x="759" d="M131 0v999h287v-67q0 -33 -10 -98q99 190 278 190v-281q-117 0 -192.5 -65t-75.5 -184v-494h-287z" />
<glyph unicode="s" horiz-adv-x="962" d="M70 147l161 189q50 -57 124.5 -85t152.5 -28q46 0 76 17t30 45q0 36 -32.5 57.5t-102.5 42.5q-348 100 -348 334q0 92 54 162.5t133.5 104.5t166.5 34q209 0 349 -146l-160 -172q-33 37 -86 64t-96 27q-40 0 -66.5 -17.5t-26.5 -46.5q0 -34 35.5 -55.5t112.5 -44.5 q50 -15 94.5 -33.5t92.5 -47.5t81.5 -63.5t55.5 -82.5t22 -103q0 -141 -109 -230t-278 -89q-280 0 -436 167z" />
<glyph unicode="t" horiz-adv-x="706" d="M70 733v266h139v357h287v-357h141v-266h-141v-733h-287v733h-139z" />
<glyph unicode="u" horiz-adv-x="1200" d="M123 406v593h289v-577q0 -99 53.5 -155t130.5 -56q70 0 126 54t60 149v585h287v-999h-287v68q0 26 6 69q-114 -162 -303 -162q-159 0 -260.5 117t-101.5 314z" />
<glyph unicode="v" horiz-adv-x="1097" d="M20 999h312l182 -520q25 -70 35 -143q19 97 35 143l182 520h311l-364 -999h-328z" />
<glyph unicode="w" horiz-adv-x="1722" d="M20 999h310l155 -550q6 -22 13.5 -54.5t12.5 -53.5t7 -26q11 56 35 134l162 550h291l157 -550q7 -26 14 -58t12 -54.5t5 -23.5q17 69 37 136l160 550h311l-344 -999h-326l-149 467q-11 32 -23 92l-24 -92l-154 -467h-326q-170 498 -336 999z" />
<glyph unicode="x" horiz-adv-x="1093" d="M20 0l345 508l-330 491h321l142 -213q11 -17 23.5 -40t18.5 -38l7 -14q22 55 47 92l143 213h322l-332 -491l346 -508h-319l-158 238q-39 53 -49 84q-33 -65 -45 -84l-162 -238h-320z" />
<glyph unicode="y" horiz-adv-x="1091" d="M20 999h302l192 -467q6 -14 12 -32.5t10 -32t7.5 -25t3.5 -12.5q0 14 37 102l200 467h303l-690 -1558h-299l295 670z" />
<glyph unicode="z" horiz-adv-x="1036" d="M70 0v180l462 516q30 35 66 62q-2 0 -16.5 -2t-35 -4t-36.5 -2h-410v249h867v-182l-463 -510q-39 -44 -74 -67l16 2q15 3 40 5.5t49 2.5h432v-250h-897z" />
<glyph unicode="{" horiz-adv-x="608" d="M41 588v272q67 0 98 30.5t31 92.5v367q0 139 84.5 219t237.5 80h61v-267h-16q-29 0 -49.5 -21t-20.5 -48v-336q0 -74 -37.5 -140.5t-107.5 -113.5q69 -45 107 -112t38 -140v-338q0 -27 20.5 -48.5t49.5 -21.5h16v-266h-61q-153 0 -237.5 79.5t-84.5 219.5v369 q0 62 -31 92.5t-98 30.5z" />
<glyph unicode="|" horiz-adv-x="618" d="M164 -115v1651h291v-1651h-291z" />
<glyph unicode="}" horiz-adv-x="608" d="M41 63h16q29 0 49.5 21.5t20.5 48.5v336q0 74 37.5 140.5t105.5 111.5q-68 47 -105.5 114t-37.5 140v338q0 27 -20.5 48t-49.5 21h-16v267h61q153 0 237.5 -79.5t84.5 -219.5v-369q0 -62 31 -92.5t98 -30.5v-272q-67 0 -98 -30.5t-31 -92.5v-367q0 -139 -84.5 -219 t-237.5 -80h-61v266z" />
<glyph unicode="~" horiz-adv-x="1015" d="M14 748q54 81 127.5 122t151.5 41q68 0 171.5 -37.5t137.5 -37.5q33 0 69 24t60 66q26 -17 184 -125q-60 -92 -141 -137.5t-160 -45.5q-57 0 -112 19t-103 38t-88 19q-62 0 -129 -73z" />
<glyph unicode="&#xa1;" horiz-adv-x="495" d="M61 1266q0 76 56 132t133 56q76 0 132 -56t56 -132q0 -77 -56 -133t-132 -56t-132.5 56.5t-56.5 132.5zM104 0l11 930h264l8 -930h-283z" />
<glyph unicode="&#xa2;" horiz-adv-x="978" d="M35 731q0 189 109.5 329.5t287.5 178.5v195h221v-195q154 -33 273 -164l-199 -184q-45 48 -83.5 71t-94.5 23q-99 0 -163 -71.5t-64 -182.5q0 -114 63 -182t164 -68q111 0 186 107l215 -164q-124 -168 -297 -203v-221h-221v223q-178 38 -287.5 178.5t-109.5 329.5z" />
<glyph unicode="&#xa3;" horiz-adv-x="1005" d="M33 0v266h94q52 126 49 254h-143v246h121q-15 135 -15 254q0 132 58 230.5t152 147t208 48.5q202 0 321 -131.5t119 -392.5h-295q0 54 -5.5 94t-19.5 77t-42.5 56.5t-71.5 19.5q-66 0 -101.5 -46.5t-35.5 -125.5q0 -83 12 -231h236v-246h-221q-3 -142 -50 -254h558v-266 h-928z" />
<glyph unicode="&#xa4;" horiz-adv-x="1034" d="M25 975l170 170l133 -135q82 45 194 45q106 0 187 -43l133 133l170 -170l-140 -139q39 -86 39 -179q0 -103 -43 -188l142 -139l-170 -170l-140 139q-79 -37 -178 -37q-104 0 -184 39l-141 -141l-170 170l145 143q-39 82 -39 184q0 97 35 174zM362 657q0 -74 42.5 -128 t117.5 -54q74 0 117 54t43 128q0 75 -42.5 130t-117.5 55t-117.5 -55t-42.5 -130z" />
<glyph unicode="&#xa5;" horiz-adv-x="1126" d="M8 1434h326l178 -351q13 -25 23.5 -53.5t17 -49.5t6.5 -22q0 1 2.5 9.5t6 20.5t8.5 27t13 33t17 35l199 351h328l-367 -625h152v-201h-213v-127h213v-200h-213v-281h-291v281h-234v200h234v127h-234v201h176z" />
<glyph unicode="&#xa6;" horiz-adv-x="389" d="M74 -111v787h221v-787h-221zM74 799v696h221v-696h-221z" />
<glyph unicode="&#xa7;" horiz-adv-x="940" d="M41 266l254 146q38 -75 92 -115.5t113 -40.5q38 0 59 17.5t21 45.5q0 27 -29.5 48.5t-77.5 38.5t-105 36.5t-114.5 48t-105.5 66.5t-77.5 99t-29.5 139q0 108 104 215q-30 62 -30 129q0 135 106 225t260 90q234 0 357 -190l-201 -158q-55 82 -143 82q-33 0 -54.5 -16.5 t-21.5 -41.5q0 -21 26.5 -40t69 -36.5t94.5 -38t103.5 -49.5t94 -64.5t69 -90.5t26.5 -121q0 -123 -92 -215q51 -71 51 -162q0 -51 -11.5 -97.5t-39.5 -90t-69.5 -74.5t-107 -50t-147.5 -19q-95 0 -176 26t-153.5 91.5t-114.5 166.5zM305 819q0 -26 13.5 -48t32.5 -37.5 t52.5 -32.5t61 -27.5t72.5 -28t73 -29.5q17 29 19.5 52.5t-11 42t-34 33t-54 29.5t-65 27t-74 29.5t-74.5 32.5q-12 -21 -12 -43z" />
<glyph unicode="&#xa8;" horiz-adv-x="761" d="M51 1274q0 58 40.5 98.5t98.5 40.5q57 0 98.5 -40.5t41.5 -98.5t-41 -97.5t-99 -39.5q-59 0 -99 39.5t-40 97.5zM434 1274q0 58 40 98.5t99 40.5q57 0 98.5 -40.5t41.5 -98.5t-41 -97.5t-99 -39.5q-59 0 -99 39.5t-40 97.5z" />
<glyph unicode="&#xa9;" horiz-adv-x="1622" d="M70 715q0 150 58.5 287.5t158 236.5t237 158t289.5 59q150 0 287 -59t236 -158t157.5 -236.5t58.5 -287.5q0 -151 -58.5 -288.5t-157.5 -237t-236 -158t-287 -58.5q-152 0 -289.5 58.5t-237 158t-158 237t-58.5 288.5zM213 715q0 -167 79 -305t217 -217.5t304 -79.5 q164 0 301 80t216 218.5t79 303.5q0 167 -78.5 305t-215.5 217.5t-302 79.5q-166 0 -304 -80t-217 -218t-79 -304zM403 717q0 179 122.5 302.5t295.5 123.5q180 0 307 -144l-157 -149q-62 72 -150 72q-77 0 -131.5 -56t-54.5 -149q0 -89 60 -145t134 -56q95 0 154 82 l166 -133q-126 -174 -326 -174q-174 0 -297 124t-123 302z" />
<glyph unicode="&#xaa;" horiz-adv-x="892" d="M68 885q0 102 81 175t230 73q91 0 170 -25v31q0 57 -31 90t-92 33q-89 0 -137 -76l-152 112l11 16.5t33 37t57.5 47t84.5 37t113 16.5q156 0 247 -84t91 -221v-273q0 -45 47 -45h17v-149h-62q-58 0 -115 34t-86 95q-48 -66 -107.5 -105.5t-150.5 -39.5q-118 0 -183.5 65 t-65.5 156zM307 903q0 -33 24.5 -57.5t63.5 -24.5q71 0 109 54.5t43 125.5q-71 13 -105 13q-64 0 -99.5 -31.5t-35.5 -79.5z" />
<glyph unicode="&#xab;" horiz-adv-x="1058" d="M16 776l439 436l155 -153l-284 -283l284 -282l-155 -156zM426 776l438 436l156 -153l-285 -283l285 -282l-156 -156z" />
<glyph unicode="&#xac;" horiz-adv-x="901" d="M82 635v266h743v-432h-245v166h-498z" />
<glyph unicode="&#xad;" horiz-adv-x="661" d="M82 463v221h498v-221h-498z" />
<glyph unicode="&#xae;" horiz-adv-x="1097" d="M51 956q0 135 66.5 249.5t181 181.5t250.5 67q135 0 249.5 -67t181.5 -181.5t67 -249.5q0 -136 -67 -250.5t-181.5 -180.5t-249.5 -66q-136 0 -250.5 66t-181 180.5t-66.5 250.5zM164 956q0 -167 110 -278t275 -111q164 0 274.5 112t110.5 277q0 166 -110 278t-275 112 t-275 -112.5t-110 -277.5zM395 733v455h168q66 0 107 -40.5t41 -107.5q0 -47 -20 -82t-54 -53l88 -172h-102l-76 156h-60v-156h-92zM487 975h60q35 0 54.5 17t19.5 48q0 30 -19.5 47t-54.5 17h-60v-129z" />
<glyph unicode="&#xb0;" horiz-adv-x="503" d="M16 1219q0 97 69 166t167 69q97 0 166 -69t69 -166q0 -98 -69 -167t-166 -69q-98 0 -167 69t-69 167zM195 1219q0 -23 17 -39.5t40 -16.5q22 0 37.5 16.5t15.5 39.5t-15.5 38t-37.5 15q-24 0 -40.5 -15t-16.5 -38z" />
<glyph unicode="&#xb1;" horiz-adv-x="907" d="M49 229v201h762v-201h-762zM82 762v221h260v262h221v-262h262v-221h-262v-260h-221v260h-260z" />
<glyph unicode="&#xb2;" horiz-adv-x="677" d="M45 696v174q159 62 247.5 160t88.5 172q0 32 -16 50t-41 18q-37 0 -55 -34.5t-7 -72.5l-190 -57q-19 52 -19.5 102t21 94.5t56 78.5t86 53.5t110.5 19.5q108 0 186 -67t78 -187q0 -87 -49 -166t-140 -135h199v-203h-555z" />
<glyph unicode="&#xb3;" horiz-adv-x="681" d="M33 872l221 70q6 -27 23.5 -43t41.5 -16q62 0 62 61q0 28 -20.5 47t-59.5 19h-18v112q30 0 58 21.5t28 58.5q0 43 -39 43q-43 0 -43 -65h-226q0 131 82.5 202.5t194.5 71.5q103 0 179.5 -57.5t76.5 -155.5q0 -104 -68 -162q92 -53 92 -157q0 -119 -81 -182.5t-201 -63.5 q-116 0 -199 51t-104 145z" />
<glyph unicode="&#xb4;" horiz-adv-x="579" d="M37 1157l317 297l148 -158l-320 -297z" />
<glyph unicode="&#xb6;" horiz-adv-x="1449" d="M150 963q0 217 125 344t337 127h338v-1434h-291v494h-47q-213 0 -337.5 126.5t-124.5 342.5zM1014 0v1434h286v-1434h-286z" />
<glyph unicode="&#xb7;" horiz-adv-x="475" d="M47 711q0 76 56 132t133 56q76 0 132 -55.5t56 -132.5t-56 -133t-132 -56t-132.5 56t-56.5 133z" />
<glyph unicode="&#xb8;" horiz-adv-x="868" d="M250 -418l139 109q21 -25 49 -25q23 0 35 14t12 35q0 23 -12.5 38.5t-36.5 15.5q-32 0 -47 -31l-129 57v273h160v-170q27 12 59 12q100 0 156.5 -61.5t56.5 -145.5q0 -89 -61 -154t-170 -65q-141 0 -211 98z" />
<glyph unicode="&#xb9;" horiz-adv-x="593" d="M8 1321l230 113h153v-537h129v-201h-479v201h129v277l-72 -35z" />
<glyph unicode="&#xba;" horiz-adv-x="1017" d="M74 1057q0 76 25 146t71.5 126.5t122.5 90.5t170 34q93 0 168.5 -34t122.5 -90.5t72.5 -126.5t25.5 -146t-25 -146t-71.5 -126t-122.5 -89.5t-170 -33.5t-170 33.5t-122.5 89.5t-71.5 126t-25 146zM303 1057q0 -74 42.5 -128.5t117.5 -54.5q74 0 117 54.5t43 128.5 q0 75 -42.5 129.5t-117.5 54.5t-117.5 -54.5t-42.5 -129.5z" />
<glyph unicode="&#xbb;" horiz-adv-x="1058" d="M47 494l285 282l-285 283l156 153l438 -436l-438 -438zM457 494l284 282l-284 283l155 153l439 -436l-439 -438z" />
<glyph unicode="&#xbc;" horiz-adv-x="1419" d="M8 1321l230 113h153v-537h129v-201h-479v201h129v277l-72 -35zM213 0l766 1434h266l-766 -1434h-266zM750 147v134l350 475h166v-408h110v-201h-110v-147h-222v147h-294zM969 332h86v121z" />
<glyph unicode="&#xbd;" horiz-adv-x="1372" d="M8 1321l230 113h153v-537h129v-201h-479v201h129v277l-72 -35zM190 0l766 1434h267l-766 -1434h-267zM782 0v174q159 62 247.5 160t88.5 172q0 32 -16 49.5t-41 17.5q-37 0 -55 -34t-7 -72l-190 -57q-19 52 -19.5 102t21 94.5t56 78.5t86 53.5t110.5 19.5q108 0 186 -67 t78 -187q0 -87 -48.5 -166t-139.5 -135h198v-203h-555z" />
<glyph unicode="&#xbe;" horiz-adv-x="1357" d="M6 872l221 70q6 -27 24 -43t42 -16q61 0 61 61q0 28 -20.5 47t-59.5 19h-18v112q30 0 58 21.5t28 58.5q0 43 -39 43q-43 0 -43 -65h-225q0 131 82 202.5t194 71.5q103 0 179.5 -57.5t76.5 -155.5q0 -105 -67 -162q92 -53 92 -157q0 -118 -81.5 -182t-201.5 -64 q-116 0 -199 51t-104 145zM219 0l766 1434h266l-766 -1434h-266zM709 147v134l350 475h166v-408h110v-201h-110v-147h-221v147h-295zM928 332h86v121z" />
<glyph unicode="&#xbf;" horiz-adv-x="1011" d="M29 401q0 77 25 144t63 112t82.5 88.5t82.5 76t64 71t27 76.5q0 14 -6 35v4h274q14 -70 5 -120t-36 -96t-62 -80t-74 -71.5t-71.5 -70.5t-53.5 -78t-21 -93q0 -67 38 -110t107 -43q88 0 127.5 73.5t5.5 180.5l279 82q30 -62 30 -185q0 -111 -49 -200t-127 -136 t-172.5 -70.5t-189 -3.5t-172.5 66t-127 137.5t-49 210.5zM303 1266q0 76 56 132t133 56q76 0 132 -56t56 -132q0 -77 -56 -133t-132 -56t-132.5 56.5t-56.5 132.5z" />
<glyph unicode="&#xc0;" horiz-adv-x="1271" d="M10 0l463 1434h326l463 -1434h-312l-98 340h-430l-100 -340h-312zM371 1796l147 158l318 -297l-146 -158zM489 569h295l-43 154q-92 334 -104 401q-19 -120 -102 -401z" />
<glyph unicode="&#xc1;" horiz-adv-x="1271" d="M10 0l463 1434h326l463 -1434h-312l-98 340h-430l-100 -340h-312zM457 1657l317 297l148 -158l-320 -297zM489 569h295l-43 154q-92 334 -104 401q-19 -120 -102 -401z" />
<glyph unicode="&#xc2;" horiz-adv-x="1271" d="M10 0l463 1434h326l463 -1434h-312l-98 340h-430l-100 -340h-312zM344 1731l215 215h158l217 -215l-156 -158l-139 160l-137 -160zM489 569h295l-43 154q-92 334 -104 401q-19 -120 -102 -401z" />
<glyph unicode="&#xc3;" horiz-adv-x="1271" d="M10 0l463 1434h326l463 -1434h-312l-98 340h-430l-100 -340h-312zM281 1753q86 107 225 107q48 0 144.5 -38t152.5 -38q14 0 27.5 3.5t23.5 7.5t21 11.5t16 12t14 13t10 9.5l127 -153q-43 -63 -95.5 -90t-131.5 -27q-56 0 -155.5 38t-147.5 38q-10 0 -20 -1.5t-17.5 -3.5 t-16.5 -6.5t-14.5 -7.5t-13.5 -8.5t-11 -8t-10 -8t-8 -6.5zM489 569h295l-43 154q-92 334 -104 401q-19 -120 -102 -401z" />
<glyph unicode="&#xc4;" horiz-adv-x="1271" d="M10 0l463 1434h326l463 -1434h-312l-98 340h-430l-100 -340h-312zM309 1692q0 58 40.5 98.5t99.5 40.5q57 0 98 -40.5t41 -98.5t-41 -98t-98 -40q-59 0 -99.5 40t-40.5 98zM489 569h295l-43 154q-92 334 -104 401q-19 -120 -102 -401zM692 1692q0 58 40 98.5t99 40.5 q57 0 98.5 -40.5t41.5 -98.5t-41 -98t-99 -40q-59 0 -99 40t-40 98z" />
<glyph unicode="&#xc5;" horiz-adv-x="1271" d="M10 0l463 1434h326l463 -1434h-312l-98 340h-430l-100 -340h-312zM397 1722q0 100 71 171t171 71t171 -71t71 -171t-71 -170.5t-171 -70.5t-171 70.5t-71 170.5zM489 569h295l-43 154q-92 334 -104 401q-19 -120 -102 -401zM559 1722q0 -32 24 -56t56 -24t55 24t23 56 t-23 55t-55 23t-56 -23t-24 -55z" />
<glyph unicode="&#xc6;" horiz-adv-x="1648" d="M-55 0l688 1434h944v-260h-582v-287h408v-258h-408v-369h582v-260h-872v340h-293l-156 -340h-311zM518 569h187v445q-57 -165 -76 -203z" />
<glyph unicode="&#xc7;" horiz-adv-x="1384" d="M39 717q0 149 57.5 284.5t154.5 234.5t232.5 157.5t284.5 58.5q331 0 549 -254l-217 -188q-154 161 -334 161q-183 0 -307.5 -131t-124.5 -323q0 -195 124.5 -326t307.5 -131q184 0 340 170l225 -180q-226 -270 -563 -270h-6v-82q27 12 59 12q100 0 156.5 -61.5 t56.5 -145.5q0 -89 -61 -154t-170 -65q-141 0 -211 98l139 109q21 -25 49 -25q23 0 35 14t12 35q0 23 -12.5 38.5t-36.5 15.5q-32 0 -47 -31l-129 57v205q-247 56 -405 256t-158 461z" />
<glyph unicode="&#xc8;" horiz-adv-x="1159" d="M164 0v1434h872v-260h-581v-287h407v-258h-407v-369h581v-260h-872zM412 1796l147 158l318 -297l-146 -158z" />
<glyph unicode="&#xc9;" horiz-adv-x="1159" d="M164 0v1434h872v-260h-581v-287h407v-258h-407v-369h581v-260h-872zM369 1657l317 297l148 -158l-320 -297z" />
<glyph unicode="&#xca;" horiz-adv-x="1159" d="M164 0v1434h872v-260h-581v-287h407v-258h-407v-369h581v-260h-872zM332 1718l215 215h158l217 -215l-156 -157l-139 159l-138 -159z" />
<glyph unicode="&#xcb;" horiz-adv-x="1159" d="M164 0v1434h872v-260h-581v-287h407v-258h-407v-369h581v-260h-872zM295 1774q0 58 40.5 98.5t98.5 40.5q57 0 98 -40.5t41 -98.5t-41 -98t-98 -40q-59 0 -99 40t-40 98zM678 1774q0 58 40 98.5t99 40.5q57 0 98 -40.5t41 -98.5t-41 -98t-98 -40q-59 0 -99 40t-40 98z " />
<glyph unicode="&#xcc;" horiz-adv-x="929" d="M123 1796l147 158l318 -297l-146 -158zM158 0v242h178v948h-178v244h649v-244h-178v-948h178v-242h-649z" />
<glyph unicode="&#xcd;" horiz-adv-x="894" d="M123 0v242h178v948h-178v244h649v-244h-178v-948h178v-242h-649zM291 1657l317 297l148 -158l-320 -297z" />
<glyph unicode="&#xce;" horiz-adv-x="894" d="M123 0v242h178v948h-178v244h649v-244h-178v-948h178v-242h-649zM131 1718l215 215h158l217 -215l-156 -157l-139 159l-137 -159z" />
<glyph unicode="&#xcf;" horiz-adv-x="923" d="M123 1774q0 58 40.5 98.5t98.5 40.5q57 0 98 -40.5t41 -98.5t-41 -98t-98 -40q-59 0 -99 40t-40 98zM152 0v242h178v948h-178v244h649v-244h-178v-948h178v-242h-649zM506 1774q0 58 40 98.5t99 40.5q57 0 98 -40.5t41 -98.5t-41 -98t-98 -40q-59 0 -99 40t-40 98z" />
<glyph unicode="&#xd0;" horiz-adv-x="1456" d="M61 578v270h123v586h451q174 0 308 -40.5t231.5 -124t148.5 -218t51 -316.5q0 -173 -50.5 -312.5t-141 -231.5t-215.5 -141.5t-275 -49.5h-508v578h-123zM479 268h205q192 0 293.5 123.5t101.5 345.5q0 231 -109 328.5t-335 97.5h-156v-315h264v-270h-264v-310z" />
<glyph unicode="&#xd1;" horiz-adv-x="1339" d="M164 0v1434h268l416 -596q27 -39 55 -95l-1 7q0 8 -0.5 19.5t-1 25.5t-1 30t-0.5 29v580h277v-1434h-277v313l-405 557q-15 20 -31.5 46.5t-25.5 43.5l-9 17q6 -70 6 -125v-852h-270zM348 1753q86 107 225 107q48 0 144.5 -38t152.5 -38q14 0 28 3.5t23.5 7.5t21 12 t16 12t14 12.5t10.5 9.5l127 -153q-43 -63 -95.5 -90t-131.5 -27q-56 0 -155.5 38t-147.5 38q-10 0 -20 -1.5t-17.5 -3.5t-16.5 -6.5t-14.5 -7.5t-13.5 -8.5t-11 -8t-10 -8t-8 -6.5z" />
<glyph unicode="&#xd2;" d="M82 717q0 198 98.5 367.5t268.5 268.5t370 99q148 0 284 -58.5t235 -157.5t157.5 -235t58.5 -284q0 -200 -99 -370t-268.5 -268.5t-367.5 -98.5q-150 0 -286.5 58t-235.5 157t-157 235.5t-58 286.5zM385 717q0 -203 123 -333t311 -130q187 0 309.5 130.5t122.5 332.5 t-122.5 331.5t-309.5 129.5q-188 0 -311 -130t-123 -331zM602 1796l148 158l317 -297l-145 -158z" />
<glyph unicode="&#xd3;" d="M82 717q0 198 98.5 367.5t268.5 268.5t370 99q148 0 284 -58.5t235 -157.5t157.5 -235t58.5 -284q0 -200 -99 -370t-268.5 -268.5t-367.5 -98.5q-150 0 -286.5 58t-235.5 157t-157 235.5t-58 286.5zM385 717q0 -203 123 -333t311 -130q187 0 309.5 130.5t122.5 332.5 t-122.5 331.5t-309.5 129.5q-188 0 -311 -130t-123 -331zM559 1657l318 297l147 -158l-319 -297z" />
<glyph unicode="&#xd4;" d="M82 717q0 198 98.5 367.5t268.5 268.5t370 99q148 0 284 -58.5t235 -157.5t157.5 -235t58.5 -284q0 -200 -99 -370t-268.5 -268.5t-367.5 -98.5q-150 0 -286.5 58t-235.5 157t-157 235.5t-58 286.5zM385 717q0 -203 123 -333t311 -130q187 0 309.5 130.5t122.5 332.5 t-122.5 331.5t-309.5 129.5q-188 0 -311 -130t-123 -331zM522 1718l215 215h158l217 -215l-156 -157l-139 159l-137 -159z" />
<glyph unicode="&#xd5;" d="M82 717q0 198 98.5 367.5t268.5 268.5t370 99q148 0 284 -58.5t235 -157.5t157.5 -235t58.5 -284q0 -200 -99 -370t-268.5 -268.5t-367.5 -98.5q-150 0 -286.5 58t-235.5 157t-157 235.5t-58 286.5zM385 717q0 -203 123 -333t311 -130q187 0 309.5 130.5t122.5 332.5 t-122.5 331.5t-309.5 129.5q-188 0 -311 -130t-123 -331zM471 1753q86 107 225 107q48 0 144.5 -38t152.5 -38q14 0 28 3.5t23.5 7.5t21 12t16 12t14 12.5t10.5 9.5l127 -153q-43 -63 -95.5 -90t-131.5 -27q-56 0 -156 38t-148 38q-11 0 -22 -1.5t-21 -5.5t-17 -7t-16 -9.5 t-12.5 -9t-12 -9.5t-9.5 -8z" />
<glyph unicode="&#xd6;" d="M82 717q0 198 98.5 367.5t268.5 268.5t370 99q148 0 284 -58.5t235 -157.5t157.5 -235t58.5 -284q0 -200 -99 -370t-268.5 -268.5t-367.5 -98.5q-150 0 -286.5 58t-235.5 157t-157 235.5t-58 286.5zM385 717q0 -203 123 -333t311 -130q187 0 309.5 130.5t122.5 332.5 t-122.5 331.5t-309.5 129.5q-188 0 -311 -130t-123 -331zM485 1774q0 58 40.5 98.5t99.5 40.5q57 0 98 -40.5t41 -98.5t-41 -98t-98 -40q-59 0 -99.5 40t-40.5 98zM868 1774q0 58 40.5 98.5t99.5 40.5q57 0 98 -40.5t41 -98.5t-41 -98t-98 -40q-59 0 -99.5 40t-40.5 98z" />
<glyph unicode="&#xd7;" horiz-adv-x="847" d="M25 983l143 143l235 -237l234 237l145 -143l-237 -235l235 -236l-143 -141l-234 235l-235 -235l-141 141l233 236z" />
<glyph unicode="&#xd8;" d="M82 717q0 198 98.5 367.5t268.5 268.5t370 99q148 0 284 -58.5t235 -157.5t157.5 -235t58.5 -284q0 -200 -99 -370t-268.5 -268.5t-367.5 -98.5q-150 0 -286.5 58t-235.5 157t-157 235.5t-58 286.5zM385 717q0 -214 135 -346l422 788q-62 19 -123 19q-188 0 -311 -130 t-123 -331zM682 274q61 -20 137 -20q187 0 309.5 130.5t122.5 332.5q0 107 -38 198.5t-107 153.5z" />
<glyph unicode="&#xd9;" horiz-adv-x="1296" d="M152 510v924h294v-942q0 -112 56.5 -177t144.5 -65q90 0 146.5 65t56.5 177v942h295v-924q0 -109 -27 -198t-73.5 -150t-110 -102.5t-135.5 -60.5t-152 -19q-79 0 -150.5 19t-135 60.5t-109.5 102.5t-73 150t-27 198zM449 1796l147 158l317 -297l-145 -158z" />
<glyph unicode="&#xda;" horiz-adv-x="1296" d="M152 510v924h294v-942q0 -112 56.5 -177t144.5 -65q90 0 146.5 65t56.5 177v942h295v-924q0 -109 -27 -198t-73.5 -150t-110 -102.5t-135.5 -60.5t-152 -19q-79 0 -150.5 19t-135 60.5t-109.5 102.5t-73 150t-27 198zM406 1657l317 297l147 -158l-319 -297z" />
<glyph unicode="&#xdb;" horiz-adv-x="1296" d="M152 510v924h294v-942q0 -112 56.5 -177t144.5 -65q90 0 146.5 65t56.5 177v942h295v-924q0 -109 -27 -198t-73.5 -150t-110 -102.5t-135.5 -60.5t-152 -19q-79 0 -150.5 19t-135 60.5t-109.5 102.5t-73 150t-27 198zM369 1718l215 215h157l217 -215l-155 -157l-139 159 l-138 -159z" />
<glyph unicode="&#xdc;" horiz-adv-x="1296" d="M152 510v924h294v-942q0 -112 56.5 -177t144.5 -65q90 0 146.5 65t56.5 177v942h295v-924q0 -109 -27 -198t-73.5 -150t-110 -102.5t-135.5 -60.5t-152 -19q-79 0 -150.5 19t-135 60.5t-109.5 102.5t-73 150t-27 198zM330 1774q0 58 40 98.5t99 40.5q57 0 98 -40.5 t41 -98.5t-41 -98t-98 -40q-59 0 -99 40t-40 98zM713 1774q0 58 40.5 98.5t98.5 40.5q57 0 98 -40.5t41 -98.5t-41 -98t-98 -40q-59 0 -99 40t-40 98z" />
<glyph unicode="&#xdd;" horiz-adv-x="1247" d="M61 1434h326l178 -433q12 -25 22.5 -53t17.5 -49t7 -22q28 84 47 124l199 433h328l-428 -832v-602h-291v604zM352 1657l318 297l147 -158l-319 -297z" />
<glyph unicode="&#xde;" horiz-adv-x="1210" d="M164 0v1434h291v-195h231q212 0 337.5 -127t125.5 -344q0 -216 -125 -342.5t-338 -126.5h-231v-299h-291zM455 565h186q107 0 167 53t60 150q0 98 -59.5 151.5t-167.5 53.5h-186v-408z" />
<glyph unicode="&#xdf;" horiz-adv-x="1177" d="M164 0v1065q0 109 43.5 196t132 140t207.5 53q102 0 183 -36.5t126 -98.5t61.5 -138.5t-4.5 -163t-77 -165.5q-12 -17 -16.5 -27.5t-4 -23t12.5 -24t36 -23.5q48 -24 82.5 -49t68.5 -65.5t52 -99t18 -134.5q0 -189 -150.5 -302.5t-424.5 -113.5v276q138 0 205 34t67 108 q0 49 -28 87t-68 63t-80 51.5t-68 67.5t-28 95q0 53 19 102.5t42.5 81t42.5 70t19 72.5q0 57 -20 85.5t-66 28.5q-44 0 -70 -39.5t-26 -119.5v-1053h-287z" />
<glyph unicode="&#xe0;" horiz-adv-x="1185" d="M102 272q0 64 26 121.5t75.5 104.5t130.5 74.5t182 27.5q106 0 242 -25v33q0 74 -48 119t-130 45q-121 0 -183 -100l-200 149q5 8 14 22t44 49.5t77 62.5t112.5 49t149.5 22q207 0 327.5 -111.5t120.5 -293.5v-302q0 -27 17 -43t45 -16h41v-260h-101q-177 0 -251 170 q-48 -80 -140.5 -135t-216.5 -55q-157 0 -245.5 85.5t-88.5 206.5zM352 1378l148 158l317 -297l-145 -158zM393 297q0 -42 30.5 -67t86.5 -25q88 0 153.5 53t94.5 139q-111 21 -158 21q-92 0 -149.5 -31t-57.5 -90z" />
<glyph unicode="&#xe1;" horiz-adv-x="1185" d="M102 272q0 64 26 121.5t75.5 104.5t130.5 74.5t182 27.5q106 0 242 -25v33q0 74 -48 119t-130 45q-121 0 -183 -100l-200 149q5 8 14 22t44 49.5t77 62.5t112.5 49t149.5 22q207 0 327.5 -111.5t120.5 -293.5v-302q0 -27 17 -43t45 -16h41v-260h-101q-177 0 -251 170 q-48 -80 -140.5 -135t-216.5 -55q-157 0 -245.5 85.5t-88.5 206.5zM330 1239l317 297l148 -158l-320 -297zM393 297q0 -42 30.5 -67t86.5 -25q88 0 153.5 53t94.5 139q-111 21 -158 21q-92 0 -149.5 -31t-57.5 -90z" />
<glyph unicode="&#xe2;" horiz-adv-x="1185" d="M102 272q0 64 26 121.5t75.5 104.5t130.5 74.5t182 27.5q106 0 242 -25v33q0 74 -48 119t-130 45q-121 0 -183 -100l-200 149q5 8 14 22t44 49.5t77 62.5t112.5 49t149.5 22q207 0 327.5 -111.5t120.5 -293.5v-302q0 -27 17 -43t45 -16h41v-260h-101q-177 0 -251 170 q-48 -80 -140.5 -135t-216.5 -55q-157 0 -245.5 85.5t-88.5 206.5zM303 1219l215 215h158l217 -215l-156 -158l-139 160l-137 -160zM393 297q0 -42 30.5 -67t86.5 -25q88 0 153.5 53.5t94.5 138.5q-111 21 -158 21q-92 0 -149.5 -31t-57.5 -90z" />
<glyph unicode="&#xe3;" horiz-adv-x="1185" d="M102 272q0 64 26 121.5t75.5 104.5t130.5 74.5t182 27.5q106 0 242 -25v33q0 74 -48 119t-130 45q-121 0 -183 -100l-200 149q5 8 14 22t44 49.5t77 62.5t112.5 49t149.5 22q207 0 327.5 -111.5t120.5 -293.5v-302q0 -27 17 -43t45 -16h41v-260h-101q-177 0 -251 170 q-48 -80 -140.5 -135t-216.5 -55q-157 0 -245.5 85.5t-88.5 206.5zM242 1294q86 107 225 107q48 0 144.5 -38t152.5 -38q14 0 28 3.5t23.5 7.5t21 12t16 12t14 12.5t10.5 9.5l127 -153q-43 -63 -95.5 -90t-132.5 -27q-56 0 -155.5 38t-147.5 38q-9 0 -17.5 -1t-16.5 -3.5 t-14.5 -4.5t-14 -6.5t-12 -6.5t-11.5 -7.5t-9 -7t-9 -7.5l-7 -5zM393 297q0 -42 30.5 -67t86.5 -25q88 0 153.5 53.5t94.5 138.5q-111 21 -158 21q-92 0 -149.5 -31t-57.5 -90z" />
<glyph unicode="&#xe4;" horiz-adv-x="1185" d="M102 272q0 64 26 121.5t75.5 104.5t130.5 74.5t182 27.5q106 0 242 -25v33q0 74 -48 119t-130 45q-121 0 -183 -100l-200 149q5 8 14 22t44 49.5t77 62.5t112.5 49t149.5 22q207 0 327.5 -111.5t120.5 -293.5v-302q0 -27 17 -43t45 -16h41v-260h-101q-177 0 -251 170 q-48 -80 -140.5 -135t-216.5 -55q-157 0 -245.5 85.5t-88.5 206.5zM272 1274q0 58 40.5 98.5t99.5 40.5q57 0 98 -40.5t41 -98.5t-40.5 -97.5t-98.5 -39.5q-59 0 -99.5 39.5t-40.5 97.5zM393 297q0 -42 30.5 -67t86.5 -25q88 0 153.5 53t94.5 139q-111 21 -158 21 q-92 0 -149.5 -31t-57.5 -90zM655 1274q0 58 40.5 98.5t99.5 40.5q57 0 98 -40.5t41 -98.5t-40.5 -97.5t-98.5 -39.5q-59 0 -99.5 39.5t-40.5 97.5z" />
<glyph unicode="&#xe5;" horiz-adv-x="1185" d="M102 272q0 64 26 121.5t75.5 104.5t130.5 74.5t182 27.5q106 0 242 -25v33q0 74 -48 119t-130 45q-121 0 -183 -100l-200 149q5 8 14 22t44 49.5t77 62.5t112.5 49t149.5 22q207 0 327.5 -111.5t120.5 -293.5v-302q0 -27 17 -43t45 -16h41v-260h-101q-177 0 -251 170 q-48 -80 -140.5 -135t-216.5 -55q-157 0 -245.5 85.5t-88.5 206.5zM358 1313q0 100 71 170.5t171 70.5t171 -70.5t71 -170.5t-71 -171t-171 -71t-171 71t-71 171zM393 297q0 -42 30.5 -67t86.5 -25q88 0 153.5 53t94.5 139q-111 21 -158 21q-92 0 -149.5 -31t-57.5 -90z M520 1313q0 -32 24 -56t56 -24t55 24t23 56t-23 55t-55 23t-56 -23t-24 -55z" />
<glyph unicode="&#xe6;" horiz-adv-x="1837" d="M102 272q0 64 26 121.5t75.5 104.5t130.5 74.5t182 27.5q148 0 242 -31v39q0 74 -48 119t-130 45q-121 0 -183 -100l-200 149q5 8 14 22t44 49.5t77 62.5t112.5 49t149.5 22q247 0 326 -178q125 174 360 174q87 0 158.5 -27.5t121.5 -77t84 -118.5t50 -151t16 -175v-35 h-680q10 -114 73 -170.5t161 -56.5q151 0 235 123l191 -137q-81 -110 -182.5 -163.5t-239.5 -53.5q-126 0 -222.5 57.5t-154.5 161.5q-57 -101 -165.5 -160t-248.5 -59q-181 0 -278 78.5t-97 213.5zM393 297q0 -45 32 -78t93 -33q58 0 104 22.5t73.5 59t42.5 76.5t18 82 q-97 18 -156 18q-87 0 -147 -42.5t-60 -104.5zM1036 614h396q-13 82 -69 128t-126 46t-127.5 -46t-73.5 -128z" />
<glyph unicode="&#xe7;" horiz-adv-x="1075" d="M90 502q0 220 145 370t367 150q224 0 379 -176l-199 -184q-45 48 -83.5 71t-94.5 23q-99 0 -163 -71.5t-64 -182.5q0 -114 63 -182t164 -68q112 0 187 106l215 -163q-78 -107 -175.5 -160t-226.5 -53q-23 0 -33 2v-86q27 12 60 12q100 0 156.5 -61.5t56.5 -145.5 q0 -89 -61.5 -154t-170.5 -65q-141 0 -211 98l140 109q21 -25 49 -25q23 0 35 14t12 35q0 23 -12.5 38.5t-36.5 15.5q-32 0 -47 -31l-129 57v221q-148 55 -235 187t-87 299z" />
<glyph unicode="&#xe8;" horiz-adv-x="1110" d="M70 502q0 143 60 260.5t175 188.5t264 71q123 0 215.5 -42t147.5 -118t81.5 -173t26.5 -216v-35h-682q14 -117 78.5 -172t157.5 -55q151 0 235 123l191 -137q-56 -76 -112 -121t-137.5 -70.5t-192.5 -25.5q-221 0 -364.5 146.5t-143.5 375.5zM344 1378l148 158l317 -297 l-145 -158zM367 614h395q-13 82 -69 128t-126 46q-72 0 -125.5 -44.5t-74.5 -129.5z" />
<glyph unicode="&#xe9;" horiz-adv-x="1110" d="M70 502q0 143 60 260.5t175 188.5t264 71q123 0 215.5 -42t147.5 -118t81.5 -173t26.5 -216v-35h-682q14 -117 78.5 -172t157.5 -55q151 0 235 123l191 -137q-56 -76 -112 -121t-137.5 -70.5t-192.5 -25.5q-221 0 -364.5 146.5t-143.5 375.5zM301 1239l317 297l148 -158 l-320 -297zM367 614h395q-13 82 -69 128t-126 46q-72 0 -125.5 -44.5t-74.5 -129.5z" />
<glyph unicode="&#xea;" horiz-adv-x="1110" d="M70 502q0 143 60 260.5t175 188.5t264 71q123 0 215.5 -42t147.5 -118t81.5 -173t26.5 -216v-35h-682q14 -117 78.5 -172t157.5 -55q151 0 235 123l191 -137q-56 -76 -112 -121t-137.5 -70.5t-192.5 -25.5q-221 0 -364.5 146.5t-143.5 375.5zM264 1219l215 215h158 l217 -215l-156 -158l-139 160l-137 -160zM367 614h395q-13 82 -69 128t-126 46q-72 0 -125.5 -44.5t-74.5 -129.5z" />
<glyph unicode="&#xeb;" horiz-adv-x="1110" d="M70 502q0 143 60 260.5t175 188.5t264 71q123 0 215.5 -42t147.5 -118t81.5 -173t26.5 -216v-35h-682q14 -117 78.5 -172t157.5 -55q151 0 235 123l191 -137q-56 -76 -112 -121t-137.5 -70.5t-192.5 -25.5q-221 0 -364.5 146.5t-143.5 375.5zM225 1274q0 58 40.5 98.5 t99.5 40.5q57 0 98 -40.5t41 -98.5t-40.5 -97.5t-98.5 -39.5q-59 0 -99.5 39.5t-40.5 97.5zM367 614h395q-13 82 -69 128t-126 46q-72 0 -125.5 -44.5t-74.5 -129.5zM608 1274q0 58 40.5 98.5t99.5 40.5q57 0 98 -40.5t41 -98.5t-40.5 -97.5t-98.5 -39.5q-59 0 -99.5 39.5 t-40.5 97.5z" />
<glyph unicode="&#xec;" horiz-adv-x="550" d="M-66 1378l148 158l317 -297l-145 -158zM127 0v999h293v-999h-293z" />
<glyph unicode="&#xed;" horiz-adv-x="559" d="M131 0v999h293v-999h-293zM143 1239l318 297l147 -158l-319 -297z" />
<glyph unicode="&#xee;" horiz-adv-x="587" d="M-6 1219l215 215h158l217 -215l-156 -158l-139 160l-137 -160zM141 0v999h293v-999h-293z" />
<glyph unicode="&#xef;" horiz-adv-x="581" d="M-39 1274q0 58 40.5 98.5t98.5 40.5q57 0 98.5 -40.5t41.5 -98.5t-41 -97.5t-99 -39.5q-59 0 -99 39.5t-40 97.5zM147 0v999h293v-999h-293zM344 1274q0 58 40 98.5t99 40.5q57 0 98.5 -40.5t41.5 -98.5t-41 -97.5t-99 -39.5q-59 0 -99 39.5t-40 97.5z" />
<glyph unicode="&#xf0;" horiz-adv-x="1142" d="M70 506q0 132 49 239t148 172.5t233 65.5q82 0 135 -22t110 -74l5 4q-2 5 -6 14t-20 36.5t-35.5 55t-52.5 65.5t-71 71l-53 -84l-182 96l57 106q-86 38 -145 56l106 241q81 -26 164 -63l68 127l208 -127l-77 -121q184 -141 273 -342.5t89 -446.5q0 -128 -32 -235.5 t-93.5 -187.5t-158 -125t-218.5 -45q-117 0 -212.5 41.5t-158 113t-96.5 166.5t-34 203zM358 502q0 -111 55 -188.5t162 -77.5q111 0 166.5 75.5t55.5 186.5q0 112 -56 187t-168 75q-108 0 -161.5 -73.5t-53.5 -184.5z" />
<glyph unicode="&#xf1;" horiz-adv-x="1208" d="M131 0h287v586q3 94 59 148t127 54q77 0 130.5 -55.5t53.5 -154.5v-578h289v594q0 197 -101.5 313.5t-260.5 116.5q-189 0 -303 -162q6 43 6 70v67h-287v-999zM266 1294q39 48 97.5 77.5t128.5 29.5q48 0 144 -38t152 -38q14 0 28 3.5t23.5 7.5t21 12t16 12t14 12.5 t10.5 9.5l127 -153q-43 -63 -95.5 -90t-131.5 -27q-56 0 -155.5 38t-147.5 38q-9 0 -17.5 -1t-16.5 -3.5t-14.5 -4.5t-14 -6.5t-12 -6.5t-11.5 -7.5t-9 -7t-9 -7.5l-7 -5z" />
<glyph unicode="&#xf2;" horiz-adv-x="1183" d="M70 502q0 146 69 265.5t188.5 187t264.5 67.5t264.5 -67.5t188.5 -187t69 -265.5t-69 -265.5t-188.5 -187t-264.5 -67.5t-264.5 67.5t-188.5 187t-69 265.5zM348 502q0 -116 68.5 -191t175.5 -75q108 0 175 75t67 191q0 115 -67 189.5t-175 74.5q-109 0 -176.5 -74.5 t-67.5 -189.5zM369 1378l147 158l318 -297l-146 -158z" />
<glyph unicode="&#xf3;" horiz-adv-x="1183" d="M70 502q0 146 69 265.5t188.5 187t264.5 67.5t264.5 -67.5t188.5 -187t69 -265.5t-69 -265.5t-188.5 -187t-264.5 -67.5t-264.5 67.5t-188.5 187t-69 265.5zM326 1239l317 297l148 -158l-320 -297zM348 502q0 -116 68.5 -191t175.5 -75q108 0 175 75t67 191 q0 115 -67 189.5t-175 74.5q-109 0 -176.5 -74.5t-67.5 -189.5z" />
<glyph unicode="&#xf4;" horiz-adv-x="1183" d="M70 502q0 146 69 265.5t188.5 187t264.5 67.5t264.5 -67.5t188.5 -187t69 -265.5t-69 -265.5t-188.5 -187t-264.5 -67.5t-264.5 67.5t-188.5 187t-69 265.5zM289 1219l215 215h158l217 -215l-156 -158l-139 160l-138 -160zM348 502q0 -116 68.5 -191t175.5 -75 q108 0 175 75t67 191q0 115 -67 189.5t-175 74.5q-109 0 -176.5 -74.5t-67.5 -189.5z" />
<glyph unicode="&#xf5;" horiz-adv-x="1183" d="M70 502q0 146 69 265.5t188.5 187t264.5 67.5t264.5 -67.5t188.5 -187t69 -265.5t-69 -265.5t-188.5 -187t-264.5 -67.5t-264.5 67.5t-188.5 187t-69 265.5zM238 1294q86 107 225 107q48 0 144.5 -38t152.5 -38q14 0 27.5 3.5t23.5 7.5t21 11.5t16 12t14 13t10 9.5 l127 -153q-43 -63 -95.5 -90t-131.5 -27q-56 0 -155.5 38t-147.5 38q-9 0 -17.5 -1t-16.5 -3.5t-14.5 -4.5t-14 -6.5t-12 -6.5t-11.5 -7.5t-9 -7t-9 -7.5l-7 -5zM348 502q0 -116 68.5 -191t175.5 -75q108 0 175 75t67 191q0 115 -67 189.5t-175 74.5q-109 0 -176.5 -74.5 t-67.5 -189.5z" />
<glyph unicode="&#xf6;" horiz-adv-x="1183" d="M70 502q0 146 69 265.5t188.5 187t264.5 67.5t264.5 -67.5t188.5 -187t69 -265.5t-69 -265.5t-188.5 -187t-264.5 -67.5t-264.5 67.5t-188.5 187t-69 265.5zM252 1274q0 58 40 98.5t99 40.5q57 0 98 -40.5t41 -98.5t-40.5 -97.5t-98.5 -39.5q-59 0 -99 39.5t-40 97.5z M348 502q0 -116 68.5 -191t175.5 -75q108 0 175 75t67 191q0 115 -67 189.5t-175 74.5q-109 0 -176.5 -74.5t-67.5 -189.5zM635 1274q0 58 40.5 98.5t98.5 40.5q57 0 98 -40.5t41 -98.5t-40.5 -97.5t-98.5 -39.5q-59 0 -99 39.5t-40 97.5z" />
<glyph unicode="&#xf7;" horiz-adv-x="843" d="M41 668v200h762v-200h-762zM266 449q0 63 46 109t110 46q63 0 109.5 -46t46.5 -109q0 -64 -46.5 -110t-109.5 -46q-64 0 -110 45.5t-46 110.5zM266 1090q0 63 46 109t110 46q63 0 109.5 -46t46.5 -109q0 -64 -46.5 -110t-109.5 -46q-64 0 -110 46t-46 110z" />
<glyph unicode="&#xf8;" horiz-adv-x="1183" d="M70 500q0 146 69 265.5t188.5 187t264.5 67.5t264.5 -67.5t188.5 -187t69 -265.5t-69 -265.5t-188.5 -187t-264.5 -67.5t-264.5 67.5t-188.5 187t-69 265.5zM348 500q0 -110 58 -181l258 435q-38 10 -72 10q-109 0 -176.5 -74.5t-67.5 -189.5zM506 248q40 -15 86 -15 q108 0 175 75t67 192q0 114 -68 188z" />
<glyph unicode="&#xf9;" horiz-adv-x="1085" d="M86 406q0 -197 102 -314t261 -117q189 0 303 162q-7 -51 -7 -69v-68h287v999h-287v-575q0 -99 -56.5 -156t-129.5 -57q-77 0 -130.5 56t-53.5 155v577h-289v-593zM326 1378l147 158l318 -297l-146 -158z" />
<glyph unicode="&#xfa;" horiz-adv-x="1085" d="M86 406q0 -197 102 -314t261 -117q189 0 303 162q-7 -51 -7 -69v-68h287v999h-287v-585q-4 -95 -60 -149t-126 -54q-77 0 -130.5 56t-53.5 155v577h-289v-593zM283 1260l317 296l148 -157l-320 -297z" />
<glyph unicode="&#xfb;" horiz-adv-x="1085" d="M86 406q0 -197 102 -314t261 -117q189 0 303 162q-7 -51 -7 -69v-68h287v999h-287v-585q-4 -95 -60 -149t-126 -54q-77 0 -130.5 56t-53.5 155v577h-289v-593zM266 1219l215 215h158l217 -215l-156 -158l-139 160l-137 -160z" />
<glyph unicode="&#xfc;" horiz-adv-x="1085" d="M86 406q0 -197 102 -314t261 -117q189 0 303 162q-7 -51 -7 -69v-68h287v999h-287v-585q-4 -95 -60 -149t-126 -54q-77 0 -130.5 56t-53.5 155v577h-289v-593zM236 1274q0 58 40 98.5t99 40.5q57 0 98 -40.5t41 -98.5t-40.5 -97.5t-98.5 -39.5q-59 0 -99 39.5t-40 97.5z M618 1274q0 58 40.5 98.5t99.5 40.5q57 0 98 -40.5t41 -98.5t-40.5 -97.5t-98.5 -39.5q-59 0 -99.5 39.5t-40.5 97.5z" />
<glyph unicode="&#xfd;" horiz-adv-x="987" d="M-18 999h301l192 -467q6 -14 12 -32.5t10 -32t7.5 -25t3.5 -12.5q0 14 37 102l200 467h304l-691 -1558h-299l295 670zM233 1239l318 297l147 -158l-319 -297z" />
<glyph unicode="&#xfe;" horiz-adv-x="1212" d="M131 -512v2048h287v-637q117 123 291 123q100 0 183.5 -43.5t137.5 -116t83.5 -165t29.5 -193.5q0 -103 -28.5 -196t-81.5 -167t-136.5 -117.5t-185.5 -43.5q-87 0 -165.5 39.5t-137.5 111.5v-643h-277zM414 502q0 -107 63 -188t158 -81q106 0 164.5 76t58.5 191 q0 116 -57.5 191t-165.5 75q-99 0 -160 -74t-61 -190z" />
<glyph unicode="&#xff;" horiz-adv-x="987" d="M-18 999h301l192 -467q6 -14 12 -32.5t10 -32t7.5 -25t3.5 -12.5q0 14 37 102l200 467h304l-691 -1558h-299l295 670zM174 1274q0 58 40 98.5t99 40.5q57 0 98.5 -40.5t41.5 -98.5t-41 -97.5t-99 -39.5q-59 0 -99 39.5t-40 97.5zM557 1274q0 58 40.5 98.5t98.5 40.5 q57 0 98.5 -40.5t41.5 -98.5t-41 -97.5t-99 -39.5q-59 0 -99 39.5t-40 97.5z" />
<glyph unicode="&#x152;" horiz-adv-x="1687" d="M-51 717q0 198 97 363t264.5 259.5t367.5 94.5h872v-260h-581v-287h407v-258h-407v-369h581v-260h-872q-151 0 -286.5 55t-232.5 150t-153.5 228.5t-56.5 283.5zM244 717q0 -204 122.5 -329.5t311.5 -125.5v909q-189 0 -311.5 -126t-122.5 -328z" />
<glyph unicode="&#x153;" horiz-adv-x="1812" d="M51 502q0 114 40.5 212t109 165t158 105t186.5 38q120 0 221 -56t166 -157q58 101 154.5 157t230.5 56q87 0 158.5 -27.5t121.5 -77t84 -118.5t50 -151t16 -175v-35h-680q10 -114 72.5 -170.5t160.5 -56.5q152 0 236 123l190 -137q-82 -110 -182.5 -163.5t-238.5 -53.5 q-124 0 -219.5 55.5t-153.5 157.5q-61 -101 -160.5 -157t-216.5 -56q-99 0 -190 37.5t-161 103.5t-111.5 165.5t-41.5 215.5zM330 502q0 -116 68 -191t175 -75q108 0 175 75t67 191q0 115 -67 189.5t-175 74.5q-109 0 -176 -74.5t-67 -189.5zM1073 614h395q-13 82 -68.5 128 t-125.5 46t-127.5 -46t-73.5 -128z" />
<glyph unicode="&#x178;" horiz-adv-x="1001" d="M-49 1434h325l179 -433q12 -25 22.5 -53t17.5 -49t7 -22q28 84 47 124l199 433h327l-428 -832v-602h-291v604zM166 1774q0 58 40 98.5t99 40.5q57 0 98 -40.5t41 -98.5t-41 -98t-98 -40q-59 0 -99 40t-40 98zM549 1774q0 58 40.5 98.5t98.5 40.5q57 0 98 -40.5t41 -98.5 t-41 -98t-98 -40q-59 0 -99 40t-40 98z" />
<glyph unicode="&#x2c6;" horiz-adv-x="602" d="M2 1219l215 215h158l217 -215l-156 -158l-139 160l-137 -160z" />
<glyph unicode="&#x2dc;" horiz-adv-x="974" d="M88 1253q86 107 225 107q48 0 144.5 -38t152.5 -38q14 0 28 3.5t23.5 7.5t21 12t16 12t14 12.5t10.5 9.5l127 -153q-43 -63 -95.5 -90t-131.5 -27q-56 0 -156 38t-148 38q-10 0 -20 -1.5t-17.5 -3.5t-16.5 -6.5l-14 -7t-13 -8t-11 -7.5t-10 -8t-8 -7z" />
<glyph unicode="&#x2000;" horiz-adv-x="982" />
<glyph unicode="&#x2001;" horiz-adv-x="1964" />
<glyph unicode="&#x2002;" horiz-adv-x="982" />
<glyph unicode="&#x2003;" horiz-adv-x="1964" />
<glyph unicode="&#x2004;" horiz-adv-x="654" />
<glyph unicode="&#x2005;" horiz-adv-x="491" />
<glyph unicode="&#x2006;" horiz-adv-x="327" />
<glyph unicode="&#x2007;" horiz-adv-x="327" />
<glyph unicode="&#x2008;" horiz-adv-x="245" />
<glyph unicode="&#x2009;" horiz-adv-x="392" />
<glyph unicode="&#x200a;" horiz-adv-x="109" />
<glyph unicode="&#x2010;" horiz-adv-x="661" d="M82 463v221h498v-221h-498z" />
<glyph unicode="&#x2011;" horiz-adv-x="661" d="M82 463v221h498v-221h-498z" />
<glyph unicode="&#x2012;" horiz-adv-x="661" d="M82 463v221h498v-221h-498z" />
<glyph unicode="&#x2013;" horiz-adv-x="989" d="M82 668v221h825v-221h-825z" />
<glyph unicode="&#x2014;" horiz-adv-x="1153" d="M82 668v221h989v-221h-989z" />
<glyph unicode="&#x2018;" horiz-adv-x="391" d="M35 1180q0 106 62.5 201t166.5 132l64 -114q-84 -43 -117 -117q68 -8 108.5 -46t40.5 -101q0 -59 -44.5 -104.5t-110.5 -45.5q-83 0 -126.5 54t-43.5 141z" />
<glyph unicode="&#x2019;" horiz-adv-x="382" d="M27 1294q0 57 44.5 103.5t110.5 46.5q82 0 126 -56t44 -143q0 -104 -63.5 -200t-165.5 -130l-64 113q92 52 117 117q-68 8 -108.5 47t-40.5 102z" />
<glyph unicode="&#x201a;" horiz-adv-x="382" d="M27 147q0 57 44.5 103.5t110.5 46.5q82 0 126 -56t44 -143q0 -104 -63.5 -199.5t-165.5 -129.5l-64 112q92 52 117 117q-68 8 -108.5 47t-40.5 102z" />
<glyph unicode="&#x201c;" horiz-adv-x="770" d="M29 1182q0 105 63 200t166 131l66 -114q-9 -5 -24 -14t-47 -39.5t-48 -63.5q68 -8 108.5 -46t40.5 -101q0 -59 -44 -104.5t-111 -45.5q-82 0 -126 55t-44 142zM418 1182q0 105 63 200t166 131l66 -114q-9 -5 -24 -14t-47 -39.5t-48 -63.5q68 -8 108.5 -46t40.5 -101 q0 -59 -44 -104.5t-111 -45.5q-82 0 -126 55t-44 142z" />
<glyph unicode="&#x201d;" horiz-adv-x="772" d="M29 1303q0 59 44 104t111 45q82 0 126 -55t44 -142q0 -105 -63 -200t-166 -131l-66 114q9 5 24 14t47 39.5t48 63.5q-68 8 -108.5 46.5t-40.5 101.5zM418 1303q0 59 44 104t111 45q82 0 126 -55t44 -142q0 -105 -63 -200t-166 -131l-65 114q9 5 24 14t46.5 39.5 t47.5 63.5q-68 8 -108.5 46.5t-40.5 101.5z" />
<glyph unicode="&#x201e;" horiz-adv-x="772" d="M29 156q0 59 44 104t111 45q82 0 126 -54.5t44 -141.5q0 -105 -63 -200.5t-166 -131.5l-66 114q9 5 24 14t47 39.5t48 63.5q-68 8 -108.5 46.5t-40.5 101.5zM418 156q0 59 44 104t111 45q82 0 126 -54.5t44 -141.5q0 -105 -63 -200.5t-166 -131.5l-65 114q9 5 24 14 t46.5 39.5t47.5 63.5q-68 8 -108.5 46.5t-40.5 101.5z" />
<glyph unicode="&#x2022;" horiz-adv-x="585" d="M43 741q0 98 69 167t167 69q97 0 166 -69t69 -167q0 -97 -69 -166t-166 -69q-98 0 -167 69t-69 166zM221 741q0 -22 17.5 -38.5t40.5 -16.5t38 16.5t15 38.5q0 24 -15 40t-38 16t-40.5 -16.5t-17.5 -39.5z" />
<glyph unicode="&#x2026;" horiz-adv-x="1564" d="M86 170q0 76 56 132t132 56q77 0 133 -56t56 -132t-56 -132t-133 -56q-76 0 -132 56t-56 132zM553 170q0 76 55.5 132t132.5 56t133 -56t56 -132t-56 -132t-133 -56t-132.5 56t-55.5 132zM1020 170q0 76 56 132t132 56q77 0 133 -56t56 -132t-56 -132t-133 -56 q-76 0 -132 56t-56 132z" />
<glyph unicode="&#x202f;" horiz-adv-x="392" />
<glyph unicode="&#x2039;" horiz-adv-x="763" d="M41 774l504 504l155 -156l-350 -348q9 -10 33 -33t33 -32l284 -287l-155 -156z" />
<glyph unicode="&#x203a;" horiz-adv-x="755" d="M61 422l351 352l-351 348l154 156l506 -504l-506 -508z" />
<glyph unicode="&#x205f;" horiz-adv-x="491" />
<glyph unicode="&#x20ac;" horiz-adv-x="1540" d="M51 514v156h72q-2 14 -2 47q0 59 4 90h-74v156h111q76 216 264 352.5t424 136.5q331 0 549 -254l-217 -188q-154 161 -334 161q-117 0 -213 -55.5t-154 -152.5h666v-156h-725q-6 -43 -6 -90q0 -33 2 -47h729v-156h-690q53 -117 157 -185.5t234 -68.5q184 0 340 170 l225 -180q-226 -270 -563 -270q-252 0 -445.5 149.5t-257.5 384.5h-96z" />
<glyph unicode="&#x2122;" horiz-adv-x="1277" d="M27 1409v166h405v-166h-113v-459h-176v459h-116zM459 950l92 627h190l97 -338q1 -2 12 -59q0 16 12 59l99 338h190l94 -627h-172l-35 320q-2 16 -3.5 40t-2.5 29q-8 -40 -16 -69l-92 -320h-148l-90 320q-4 12 -7.5 27.5t-5.5 28.5t-3 15q0 -42 -4 -73l-35 -318h-172z" />
<glyph unicode="&#xe000;" horiz-adv-x="1003" d="M0 0v1004h1004v-1004h-1004z" />
</font>
</defs>
</svg>
